HIERARCHY
ROOT Hips
{
  OFFSET 0.0 0.0 0.0
  CHANNELS 6 XPOSITION YPOSITION ZPOSITION ZROTATION XROTATION YROTATION 
  JOINT LeftUpLeg
  {
    OFFSET 0.089458 -0.0866707 0.00101652
    CHANNELS 3 ZROTATION XROTATION YROTATION 
    JOINT LeftLeg
    {
      OFFSET 0.0 -0.444227 0.013727
      CHANNELS 3 ZROTATION XROTATION YROTATION 
      JOINT LeftFoot
      {
        OFFSET -0.00253549 -0.420924 -0.0146059
        CHANNELS 3 ZROTATION XROTATION YROTATION 
        End Site
        {
          OFFSET -0.0004 -0.0441509 0.084991
        }
      }
    }
  }
  JOINT Spine
  {
    OFFSET 0.0 0.118905 0.0
    CHANNELS 3 ZROTATION XROTATION YROTATION 
    JOINT Spine1
    {
      OFFSET 0.0 0.256574 0.00127663
      CHANNELS 3 ZROTATION XROTATION YROTATION 
      End Site
      {
        OFFSET -0.0029 0.2150836 0.02525291
      }
      JOINT RightArm
      {
        OFFSET -0.162727 -0.05365632 0.00102123
        CHANNELS 3 ZROTATION XROTATION YROTATION 
        JOINT RightForeArm
        {
          OFFSET -0.26364 0.00099144 -0.0142434
          CHANNELS 3 ZROTATION XROTATION YROTATION 
          End Site
          {
            OFFSET -0.220324 0.00085362 0.0102216
          }
        }
      }
      JOINT LeftArm
      {
        OFFSET 0.162727 -0.0536563199 0.00102123
        CHANNELS 3 ZROTATION XROTATION YROTATION 
        JOINT LeftForeArm
        {
          OFFSET 0.262597 0.00099144 -0.0142434
          CHANNELS 3 ZROTATION XROTATION YROTATION 
          End Site
          {
            OFFSET 0.220902 0.00085362 0.0102216
          }
        }
      }
    }
  }
  JOINT RightUpLeg
  {
    OFFSET -0.089458 -0.0866707 0.00101652
    CHANNELS 3 ZROTATION XROTATION YROTATION 
    JOINT RightLeg
    {
      OFFSET 0.0 -0.444227 0.013727
      CHANNELS 3 ZROTATION XROTATION YROTATION 
      JOINT RightFoot
      {
        OFFSET 0.00253549 -0.420924 -0.0146059
        CHANNELS 3 ZROTATION XROTATION YROTATION 
        End Site
        {
          OFFSET 0.0004 -0.0441509 0.084991
        }
      }
    }
  }
}
MOTION
Frames: 19
Frame Time: 0.033333
-9.34677951456 0.96120282443 -0.836405720059 -9.34939686989 1.69987250775 -92.6518097894 -0.159335440031 -19.2196059093 -3.22196116783 2.037462078 49.3080201278 12.2922376615 -3.23804925153 -32.747389787 4.65082393559 8.90714212113 14.0385052964 0.353583445365 -6.35136558844 -2.0783840892 3.61378393419 73.1865629568 3.68918111178 22.2989591305 3.7688535609 25.226494322 18.5601630977 -73.4338362953 -4.12701587437 11.8490522995 -3.31531640685 34.1670719267 -17.4276955352 1.08085715903 -0.975048777607 -7.07278510961 0.550536245631 20.5521928918 -11.5174935728 -0.870414655112 -44.6191533192 -2.12520460907 
-9.36841462909 0.963345771836 -0.837087352583 -8.60049053306 1.34553125824 -92.7693163638 -0.259796250241 -18.42638189 -3.26439478526 1.29747756905 38.8538862635 12.6221204305 -3.17732481438 -32.9039274774 4.39509524976 8.29222189771 13.984049052 0.64547688895 -6.82966922186 -2.20108608976 3.70747193149 73.1416066516 4.42738198086 23.1134694343 3.65419859039 24.7250218332 18.8537570717 -73.1932975233 -4.54629600119 11.4806651928 -3.8357915492 34.6065058073 -16.4019974898 0.666090933474 0.289761757554 -7.59973206965 0.542105390956 19.3006307359 -11.1392607485 -0.434660618938 -45.6570756957 -1.99806511998 
-9.39195611861 0.965016773406 -0.837583497224 -7.83508502052 0.885061035292 -92.811315197 -0.340352541849 -17.2661325331 -2.53889764115 0.784728437871 28.5513501553 12.8747247317 -3.01429716352 -33.1092224733 4.11356210925 7.32274911578 13.9657791497 0.923248196055 -7.04085824411 -2.22819639123 3.75929428427 73.1362791041 4.98786474283 23.4465845904 3.72505113086 24.54157832 18.8344003156 -72.9860217725 -4.83856534531 11.03650226 -4.29268382023 34.8250718608 -15.5471600416 0.229207514848 1.66667415985 -7.96340293068 0.422334742168 17.9731493197 -10.8285725186 0.00383405940589 -46.3940462769 -1.85279297275 
-9.41813538082 0.965584367536 -0.837670117529 -7.28878514636 0.48268418592 -92.6267498253 -0.514084113 -16.3730750538 -1.55094258078 0.11580416317 20.6738505138 14.3397004171 -3.29741426759 -33.3424358674 3.78487633092 6.30234062501 13.8633783923 1.04560196369 -7.06196352865 -2.16307011061 3.68058830691 73.3539299122 5.04413952517 23.268765738 3.90543898816 25.0799133398 18.4645541097 -72.8023853065 -4.75143091452 10.610757786 -4.54691157199 34.5985213162 -15.0802722156 -0.11808834118 3.22183480933 -8.2886001899 0.196770572953 17.1266293344 -10.5327314125 0.91269886216 -47.2101514299 -1.58253850227 
-9.44707778921 0.96416477771 -0.837301916594 -7.04380376319 0.258390912139 -91.960184834 -1.002164095 -16.0256506515 -0.896981102776 -0.437567744884 16.6583481498 17.3401871516 -3.5545819889 -33.6904613264 3.42686662948 5.48682500273 13.6027238595 0.967444002296 -6.93539798889 -1.98989023732 3.43677019034 73.9458682566 4.08143161873 22.4851347194 4.14048159232 26.5895490709 17.7273632549 -72.5991735183 -4.40774732143 10.080710347 -4.65638669778 34.2338643466 -14.8730579366 -0.264505745715 4.9275042267 -8.65564687193 -0.0681977446555 17.1412271562 -10.2703300587 2.83262309622 -48.2983644892 -1.02062919126 
-9.47822707045 0.960098673606 -0.836079864175 -7.03472089226 -0.0794933634285 -91.5346845393 -1.87713726106 -15.9321282863 -0.51137071363 -0.31407667071 16.4124630472 19.3140042463 -2.00707883525 -32.1697162926 3.27032531045 4.58548890731 13.262877552 1.01735806426 -6.65060257928 -1.87050493393 3.30024580789 74.8448987363 1.46471966008 20.7558930385 4.58293911232 29.1699245299 16.3418457214 -72.3698089358 -4.20412273368 9.43165966826 -4.65763576863 34.0330977661 -14.8202093479 -0.616765601804 6.36225333686 -8.38079237577 -0.455843943721 18.4772411861 -10.2781506253 5.60618938867 -49.3012070141 -0.177159899227 
-9.51043971529 0.952168188939 -0.834448266462 -7.14278131511 -0.655901038284 -91.6649977185 -2.99319849573 -15.6652283992 0.041110575109 0.253769675516 18.3256912413 19.099450929 0.362281584551 -30.3001637432 3.43653689669 3.03741948829 13.2245951955 1.22952977997 -6.03860866502 -1.98369760362 3.19122681067 76.1038733551 -2.98126871657 18.2647078973 5.37859766713 32.9907562573 14.0305301968 -72.1218115972 -4.55921530401 8.95692053981 -4.77060624372 34.2884136524 -14.5752070473 -1.42168594649 6.94278825357 -6.82228706803 -0.820456196924 21.9362504724 -11.0454293172 10.1282561476 -49.904606416 1.18547132457 
-9.5417860108 0.944839730236 -0.832432905915 -7.08800618618 -1.46323494771 -91.2784909737 -4.21214820596 -14.9997647759 0.788498595571 0.781208809375 20.3899588236 18.6330497539 2.03543073705 -30.0163557228 3.87997689671 1.20076956092 13.4228047239 1.38836935094 -5.36904009804 -2.08809896607 2.94136120191 77.4453498288 -8.19890187685 15.4740872628 6.470233505 37.3537854764 11.0265890942 -71.7942357246 -5.61520865347 8.18032120099 -5.25990648171 35.3754177682 -13.7206539057 -2.52756955897 6.23452453051 -4.87531048238 -1.17327933018 27.8978513159 -11.9595758593 15.9475115798 -49.3332713372 3.00985455235 
-9.57056280178 0.944024184609 -0.829327144577 -7.15901923609 -2.16689245523 -92.1191438266 -5.26299628854 -13.7532748892 1.49173583301 1.12476044108 21.6871090771 19.0123147906 3.35198833283 -30.6355294465 4.29002004646 -0.213764457134 13.583081943 1.53408695457 -5.0136435843 -2.0595923178 2.75437004579 78.2394617727 -12.5451629816 12.500721502 7.65170554036 41.0609321201 7.970500351 -71.4352341517 -7.09384044839 6.67163230485 -6.02075412365 37.1011675149 -12.4445816159 -3.69938882949 3.90112743125 -3.15876569631 -1.72733136232 36.1266634449 -12.7124138238 19.5018088352 -46.2398650017 3.88461246072 
-9.59582289887 0.946458610745 -0.826716932496 -7.46419208821 -2.75576319093 -93.7609710389 -6.00563251171 -11.9970095648 2.4581443146 1.21910723146 22.1372663548 19.7080890859 3.9309762117 -32.0134586399 4.44611633597 -1.37570703399 13.8797059596 1.70192049729 -4.72655536556 -2.08461258139 2.59904065845 78.3688323857 -15.0217562775 9.58600401425 8.71849827267 43.8763565866 5.51335858011 -71.2238193063 -8.06418664075 4.90546918266 -6.62434818588 38.3464749251 -11.4985107696 -4.50764310691 0.166186306531 -1.33823640276 -2.32358873417 45.5650081608 -13.7371564965 19.184264803 -41.0967632925 3.10015947158 
-9.61824391492 0.948406448304 -0.825623526962 -7.97188517186 -3.28852221506 -95.2292499746 -6.55660594281 -10.0671865724 3.57306490768 1.1317241391 22.2646169394 20.1347368524 3.96167364315 -33.3666283975 4.33423570294 -2.60667254107 14.3623971358 1.75889729501 -4.26343823087 -2.19289135686 2.27495757384 78.0857005541 -15.8201046462 6.79114396674 9.49239114903 46.0610848002 4.10902857119 -71.1166877892 -7.57597752549 3.18458146349 -6.62786402576 38.0738479244 -11.6243032173 -4.85338600203 -4.08748615455 0.318095143139 -2.9567451358 54.4796617824 -14.6758772054 17.5691026492 -36.7741141518 2.20993716115 
-9.63886474614 0.949823289707 -0.82591917093 -8.5856647537 -3.62254151736 -96.0854210172 -6.89020988423 -8.03252956772 4.47361681201 0.961847942932 22.2149563415 20.29360876 4.00181551867 -34.8462966736 4.16649479466 -3.65467286165 14.8806309088 1.55638965664 -3.66200805794 -2.28292648361 1.69420259697 77.6483772019 -15.5457239944 4.00019121431 9.66722264745 47.2033246558 4.09836749967 -70.9334611345 -5.75869556 1.47922143235 -6.06889457758 36.4755734133 -12.7202104847 -4.86805682148 -8.10675237966 1.50346038633 -3.52726891618 61.5642515934 -15.1470646355 16.8543626261 -35.3304887839 1.86326749473 
-9.6585106877 0.951541615534 -0.827077515767 -9.1505068839 -3.66504407702 -96.4922885559 -6.93089860178 -5.84545859926 5.07714598745 0.749588395251 21.7351457976 20.3895216915 4.0989237332 -36.392122162 3.99232795903 -4.25921375887 15.2598891153 1.14272031678 -3.03397259064 -2.2772525174 0.974397241593 77.2123106045 -14.49822057 1.16850534811 9.10254956442 46.5975005368 5.41054843829 -70.6326664336 -3.46972926818 -0.315237375982 -5.19169423624 34.3610868652 -14.2832762244 -4.65355515748 -11.7238404179 2.24855441039 -3.87845120321 66.2708051768 -15.2548330678 16.9203542063 -35.7521436821 1.73863820688 
-9.67750067423 0.953785377348 -0.828880360829 -9.58653591523 -3.53284149677 -96.7339474789 -6.73817542284 -3.64368991747 5.52981207894 0.469999937662 20.9355594571 20.4162379764 3.99541178944 -37.7804400731 3.80003678955 -4.60514533797 15.4680971869 0.698559625075 -2.35684940755 -2.23766281998 0.272280875549 76.87130658 -12.9497953409 -1.53229210892 8.15156610458 44.555670126 7.32843951713 -70.3075767499 -1.2363386248 -2.11413308587 -4.09630008678 32.0302813958 -16.1254977719 -4.25636727753 -15.0418080053 2.82412804844 -3.91747378148 68.575461267 -15.3012322504 16.5002668365 -36.0139858141 1.44581839221 
-9.69609779898 0.955964980087 -0.831226524 -9.91591837286 -3.32108322094 -96.8336545804 -6.39359792874 -1.54064073452 5.93641622843 0.164644764852 20.0887013774 20.2471942095 3.62011680021 -38.9956878208 3.5762859822 -4.83702214944 15.5702785244 0.296675029572 -1.62210525452 -2.24832154362 -0.345488870785 76.6361295065 -11.593420517 -3.83585003269 7.29927204806 42.4718033159 8.97554048926 -69.9935041613 0.865826955785 -3.81090362052 -2.88050571051 29.4276275673 -18.2419206787 -3.74983746047 -17.9798463202 3.34595770268 -3.64954125515 68.5044204694 -15.5297037857 15.2025069886 -35.5323960059 0.952049823124 
-9.71467160131 0.957755613599 -0.833933691403 -10.1790812927 -3.03581396695 -96.7345143846 -5.94304791523 0.466635109001 6.31140812802 -0.0867675282348 19.3104866988 19.9248468467 3.2819978903 -40.1283654116 3.34887995643 -4.9333355007 15.6330821138 -0.0795534477489 -0.940060599975 -2.27986164966 -0.87637757034 76.4151182453 -11.151283589 -5.54405601156 6.80388184265 41.4149510701 9.85590320817 -69.6476233817 2.53971576975 -5.44402789117 -1.73462216237 27.0289129421 -20.493615482 -3.30052840696 -20.3000376756 3.71944482621 -3.18704417357 66.0571636898 -15.9746547516 13.9761798203 -34.8762368078 0.50266296949 
-9.73346456265 0.959082917795 -0.836967691348 -10.3603459756 -2.71546101941 -96.5193770861 -5.43700176095 2.39255101979 6.6711315666 -0.289999346751 18.5377839829 19.5709508402 3.20857122229 -41.1722607885 3.14717038297 -4.96923625564 15.7032093736 -0.414967849539 -0.279071017399 -2.30368086718 -1.32580876684 76.1070084119 -11.7816229645 -6.61620873483 6.72386318832 41.3741680106 9.91935139669 -69.3071452818 3.25740152533 -7.0467287917 -0.767256333726 25.6913672422 -22.7128224905 -3.03007682149 -21.9099576592 3.78976674636 -2.72373067094 61.5236392886 -16.401604754 13.3722655929 -34.2795139159 0.198929939927 
-9.75259070365 0.960134172537 -0.840417827063 -10.3835011706 -2.44703330436 -96.2981404287 -4.94948590988 4.25190631023 7.01850431562 -0.491448652647 17.5667889226 19.2213544377 3.23895745325 -42.0599360787 2.96120631654 -5.06471717759 15.8351105718 -0.658907175292 0.51334901389 -2.39058520597 -1.67836626977 75.701541062 -13.1754263712 -7.17773480819 6.93510044878 41.9098768227 9.41785158708 -69.0701991893 3.03073742885 -8.55015545397 0.055034162526 25.596328575 -24.8316974352 -2.95938308292 -22.899131268 3.52848767806 -2.35368702997 55.4358097191 -16.5208239984 12.9525769354 -33.618665793 -0.00846672150495 
-9.77248603681 0.960742744298 -0.844108470921 -10.29664507 -2.27766915894 -96.1134179626 -4.56036747154 6.04381284228 7.33777809328 -0.661054682817 16.5687565584 18.8913470178 3.08968900502 -42.8917370064 2.77046239836 -5.18396032767 16.0427636905 -0.783163951025 1.27501425081 -2.5638999755 -1.89303089781 75.3061687317 -14.9190285248 -7.39347401709 7.2211816415 42.713537371 8.70258649323 -68.9193954426 2.62829670654 -9.92831943507 0.778673261728 25.983547367 -26.7655493854 -3.12429906765 -23.3603141785 3.06337463403 -2.05796715966 48.3342946994 -16.2746486128 12.5470182317 -33.1398012302 -0.138235184756 
